<svg xmlns="http://www.w3.org/2000/svg" height="512" width="512" style=""><rect id="backgroundrect" width="100%" height="100%" x="0" y="0" fill="none" stroke="none"/><g class="currentLayer" style=""><title>Layer 1</title><path d="m421.570312 170.960938c-8.113281-19.597657-24.332031-34.699219-44.457031-41.394532-12.308593-4.105468-23.421875-11.082031-33.34375-19.429687 10.414063-8.25 17.230469-20.851563 17.230469-35.136719h-30c0 8.277344-6.722656 15-15 15s-15-6.722656-15-15 6.722656-15 15-15v-30c-24.8125 0-45 20.1875-45 45 0 14.285156 6.816406 26.886719 17.226562 35.132812-9.917968 8.347657-21.035156 15.328126-33.339843 19.433594-20.128907 6.691406-36.34375 21.796875-44.457031 41.394532-5.1875 12.507812-6.324219 26.976562-4.207032 40.039062h219.554688c2.113281-13.0625.980468-27.53125-4.207032-40.039062zm0 0" id="svg_1" class="" transform="translate(0,-0.5617977380752563) " fill="#ffffff" fill-opacity="1"/><path d="m350.49438190460205,392.68539333343506 c-107.519531,0 -195,-87.480469 -195,-195 c0,-68.421875 34.894531,-127.445312 93.324219,-163.230469 l53.527343,-32.769531 l-62.5625,5.023438 c-131.382812,10.578124 -235.289062,119.023437 -235.289062,250.976562 c0,140.609375 115.390625,256 256,256 c95.84375,0 182.964844,-53.953125 226.96875,-139.179688 l29.03125,-56.25 l-52.183594,37.238282 c-33.457031,24.332031 -72.316406,37.191406 -113.816406,37.191406 zm0,0 " id="svg_2" class=""/><path d="m211 241h210v30h-210zm0 0" id="svg_3" class="" fill="#ffffff" fill-opacity="1"/><path d="m421 342.636719v-41.636719h-201.722656c14.238281 17.164062 31.738281 31.464844 51.722656 41.746094v-11.746094h90v29.117188c21.152344-1.902344 41.25-7.644532 60-17.480469zm0 0" id="svg_4" class="selected" fill="#ffffff" fill-opacity="1"/></g></svg>